<svg width="20" height="12" viewBox="0 0 20 12" fill="none" xmlns="http://www.w3.org/2000/svg">
<path d="M17.8021 8.36446C17.8021 8.36446 19.4191 10.0077 19.8191 10.768C19.8269 10.779 19.833 10.7911 19.8371 10.804C20.0001 11.0849 20.0401 11.3051 19.9601 11.4677C19.8251 11.7362 19.3681 11.871 19.2131 11.8824H16.3551C16.1561 11.8824 15.7421 11.8288 15.2381 11.4708C14.8531 11.194 14.4701 10.7382 14.0991 10.2927C13.5451 9.63107 13.0661 9.05693 12.5811 9.05693C12.5198 9.05679 12.459 9.06723 12.4011 9.0878C12.0341 9.20715 11.5681 9.74528 11.5681 11.1786C11.5681 11.6272 11.2241 11.8824 10.9831 11.8824H9.6741C9.2281 11.8824 6.9061 11.7218 4.8471 9.48805C2.32409 6.75317 0.0580901 1.26695 0.0360901 1.21859C-0.10491 0.863615 0.19109 0.670177 0.511091 0.670177H3.39709C3.78409 0.670177 3.91009 0.910945 3.99809 1.12702C4.10009 1.37499 4.4781 2.36687 5.0981 3.48119C6.1021 5.29416 6.7191 6.0319 7.2121 6.0319C7.30472 6.03217 7.39578 6.00733 7.4761 5.95987C8.1201 5.59563 8.0001 3.22911 7.9701 2.7414C7.9701 2.64674 7.9691 1.6847 7.6391 1.21962C7.4031 0.886251 7.0011 0.756606 6.7581 0.709276C6.8231 0.612557 6.9611 0.464392 7.1381 0.376934C7.5791 0.150571 8.3761 0.117645 9.1671 0.117645H9.6061C10.4641 0.129992 10.6861 0.186583 10.9981 0.267868C11.6261 0.422206 11.6381 0.840978 11.5831 2.26707C11.5671 2.67452 11.5501 3.13342 11.5501 3.6736C11.5501 3.78884 11.5451 3.91746 11.5451 4.04813C11.5261 4.7797 11.5011 5.60386 12.0031 5.94238C12.0682 5.98411 12.1434 6.00621 12.2201 6.00617C12.3941 6.00617 12.9151 6.00617 14.3281 3.51103C14.9481 2.40906 15.4281 1.10953 15.4611 1.01178C15.4891 0.957246 15.5731 0.803937 15.6751 0.742201C15.7477 0.70248 15.8289 0.682638 15.9111 0.684582H19.3061C19.6761 0.684582 19.9271 0.742202 19.9761 0.886251C20.0581 1.11982 19.9601 1.83286 18.4101 3.98948C18.1491 4.34858 17.9201 4.65931 17.7191 4.93095C16.3141 6.82828 16.3141 6.92397 17.8021 8.36446Z" fill="white"/>
</svg>
