<svg width="20" height="10" viewBox="0 0 20 10" fill="none" xmlns="http://www.w3.org/2000/svg">
<path d="M19.5825 1.54411C19.4665 1.24696 19.2454 0.976223 18.9405 0.758074C18.6356 0.539925 18.2572 0.381741 17.8418 0.29881C16.2829 8.56725e-06 10.0089 8.46041e-06 10.0089 8.46041e-06C10.0089 8.46041e-06 3.75074 -0.00595552 2.17599 0.29881C1.76064 0.381741 1.38221 0.539925 1.07729 0.758074C0.772366 0.976223 0.55126 1.24696 0.435342 1.54411C0.139832 2.68594 -0.00585506 3.84504 0.000180061 5.00627C-0.00471415 6.16312 0.140969 7.31778 0.435342 8.4553C0.55126 8.75245 0.772366 9.02319 1.07729 9.24134C1.38221 9.45949 1.76064 9.61767 2.17599 9.7006C3.73323 10 10.0089 10 10.0089 10C10.0089 10 16.2662 10 17.8418 9.7006C18.2572 9.61767 18.6356 9.45949 18.9405 9.24134C19.2454 9.02319 19.4665 8.75245 19.5825 8.4553C19.8707 7.31737 20.0102 6.16271 19.9993 5.00627C20.0114 3.84545 19.8718 2.68636 19.5825 1.54411ZM8.00649 7.14797V2.858L13.2284 5.00627L8.00649 7.14797Z" fill="white"/>
</svg>
